# xmcd
#
# Track frame offsets:
# 150
# 18215
# 36850
# 55522
# 70270
# 87327
# 98542
# 114140
# 126457
# 139150
# 148107
# 167245
# 184617
# 201975
# 211157
# 227572
# 240442
# 252787
# 268400
# 279325
# 291387
# 306350
#
# Disc length: 4260 seconds
#
#
# Revision: 4
# Processed by: cddbd v1.5.2PL0 Copyright (c) Steve Scherf et al.
# Submitted via: FreeRIP 2.942 
#
DISCID=4010a216
DTITLE=Νίκος Ξυλούρης - Αξέχαστες επιτυχίες
DYEAR=2000
DGENRE=Κρητικά Τραγούδια
TTITLE0=Αυτόν τον κόσμο τον καλό
TTITLE1=Γεννήθηκα
TTITLE2=Χίλια μύρια κύματα
TTITLE3=Ήτανε μιά φορά
TTITLE4=Μπήκαν στην πόλη οι οχτροί
TTITLE5=Ζαβαρακατρανέμια
TTITLE6=Αγρίμια και αγριμάκια μου
TTITLE7=Πότε θα κάνει ξαστεριά
TTITLE8=Ντιρλαντά
TTITLE9=Γειά σου χαρά σου Βενετιά
TTITLE10=Και να αδελφέ μου
TTITLE11=Του θάνατου παράγγειλα
TTITLE12=Ο Διογένης
TTITLE13=Μπάρμπα Γιάννη Μακρυγιάννη
TTITLE14=Φιλεντέμ
TTITLE15=Ο πραματευτής
TTITLE16=Έβαλε ο Θεός σημάδι
TTITLE17=Ο αντρειωμένος
TTITLE18=Ο μικρός στρατιώτης
TTITLE19=Ερωτικό τραγούδι
TTITLE20=Η ώρα τούτη
TTITLE21=Μπέρδε και μπέρδε
EXTD=YEAR: 2000
EXTT0=
EXTT1=
EXTT2=
EXTT3=
EXTT4=
EXTT5=
EXTT6=
EXTT7=
EXTT8=
EXTT9=
EXTT10=
EXTT11=
EXTT12=
EXTT13=
EXTT14=
EXTT15=
EXTT16=
EXTT17=
EXTT18=
EXTT19=
EXTT20=
EXTT21=
PLAYORDER=
